<?xml version="1.0" standalone="no"?>
<!DOCTYPE svg PUBLIC "-//W3C//DTD SVG 20010904//EN"
 "http://www.w3.org/TR/2001/REC-SVG-20010904/DTD/svg10.dtd">
<svg version="1.0" xmlns="http://www.w3.org/2000/svg"
 width="450.000000pt" height="450.000000pt" viewBox="0 0 450.000000 450.000000"
 preserveAspectRatio="xMidYMid meet">
<metadata>
Created by potrace 1.16, written by Peter Selinger 2001-2019
</metadata>
<g transform="translate(0.000000,450.000000) scale(0.100000,-0.100000)"
fill="#000000" stroke="none">
<path d="M0 2250 l0 -2250 2250 0 2250 0 0 2250 0 2250 -2250 0 -2250 0 0
-2250z m1516 1766 c27 -19 108 -141 139 -209 27 -57 59 -172 69 -247 8 -55 9
-310 1 -318 -3 -3 -5 19 -5 49 0 94 -20 271 -40 356 -19 79 -75 221 -85 212
-2 -3 1 -25 7 -49 15 -66 3 -254 -26 -415 -14 -77 -26 -173 -26 -213 0 -53 -3
-71 -11 -66 -15 9 -5 236 16 379 26 176 17 302 -32 435 -9 25 -23 54 -30 65
-24 36 -13 46 23 21z m1645 -97 c11 -43 -8 -139 -51 -253 -30 -79 -49 -155
-70 -284 -17 -97 -33 -178 -36 -181 -3 -3 -4 10 -1 29 3 19 15 97 26 173 11
76 34 184 50 240 31 106 49 227 34 226 -13 0 -88 -95 -148 -184 -74 -111 -134
-235 -150 -308 -7 -34 -14 -52 -14 -39 -3 68 75 253 160 384 59 89 172 228
183 224 6 -1 13 -14 17 -27z m-2163 -397 c34 -22 90 -109 165 -257 102 -202
155 -253 251 -241 48 6 50 5 26 -9 -40 -23 -100 -19 -146 11 -53 34 -107 110
-190 267 -60 115 -145 230 -158 216 -3 -3 22 -90 54 -194 89 -285 131 -377
212 -458 41 -41 44 -46 17 -30 -80 46 -151 182 -244 468 -34 105 -67 200 -74
213 -10 20 -9 23 11 31 25 9 40 6 76 -17z m2902 -21 c0 -27 -35 -66 -150 -166
-84 -73 -115 -109 -185 -214 -47 -69 -99 -138 -117 -152 -18 -14 -71 -40 -117
-57 -46 -18 -97 -42 -115 -54 -26 -19 -28 -19 -16 -3 8 10 53 36 100 58 115
54 153 86 202 170 95 165 121 197 230 293 60 53 107 98 104 102 -3 3 -35 -3
-71 -13 -105 -28 -170 -77 -261 -196 -102 -134 -132 -154 -260 -179 -113 -22
-150 -34 -179 -58 -19 -16 -19 -16 -6 1 22 28 60 44 174 73 127 32 155 52 258
190 81 110 152 163 264 195 38 12 75 22 80 24 6 2 22 4 38 4 20 1 27 -4 27
-18z m-1514 -236 c221 -39 427 -146 568 -295 84 -89 110 -154 104 -260 -6
-101 -47 -180 -142 -278 -144 -149 -336 -246 -576 -292 -324 -62 -617 -11
-835 145 -104 74 -167 191 -164 305 1 38 3 35 10 -24 23 -175 135 -289 361
-366 399 -135 896 -36 1173 235 108 106 150 187 150 290 0 55 -6 82 -27 127
-50 108 -223 251 -385 318 -255 106 -528 113 -780 18 -82 -30 -75 -15 9 20 63
26 160 51 248 65 62 10 205 6 286 -8z m-1451 -444 c157 -52 162 -53 250 -48
l90 6 -50 -19 c-79 -29 -143 -25 -297 20 -135 39 -288 62 -288 44 0 -6 12 -17
28 -26 15 -10 62 -49 105 -87 126 -112 274 -177 447 -197 65 -8 65 -8 25 -15
-50 -10 -176 6 -263 33 -79 23 -146 62 -221 127 -111 96 -147 121 -194 137
-52 17 -66 36 -47 59 17 20 43 24 155 21 90 -3 116 -8 260 -55z m2795 -7 c123
-29 321 -96 327 -110 3 -8 3 -17 0 -20 -2 -3 -51 -7 -108 -9 -122 -5 -213 -27
-394 -96 -71 -27 -155 -56 -185 -64 -79 -20 -196 -28 -265 -17 l-60 10 65 1
c136 3 239 25 375 84 158 68 270 105 342 114 30 3 50 9 46 13 -4 5 -59 24
-120 44 -125 40 -193 45 -283 21 -34 -9 -94 -14 -160 -13 l-105 1 105 8 c58 4
134 16 170 27 80 24 164 27 250 6z m-2105 -674 c-9 -10 -20 -33 -24 -51 -5
-27 -11 -32 -42 -34 -55 -3 -270 -119 -333 -180 -73 -69 -101 -131 -141 -303
-53 -233 -80 -291 -199 -420 -68 -74 -96 -112 -115 -156 -9 -22 7 -9 55 43 57
62 150 131 177 131 4 0 -17 -33 -48 -72 -57 -76 -131 -205 -122 -215 12 -11
70 42 152 137 88 102 129 140 151 140 18 0 55 -103 63 -180 7 -64 8 -64 20
-35 20 48 51 175 51 212 0 18 2 33 4 33 2 0 37 -16 77 -35 69 -33 109 -43 109
-28 0 16 -53 73 -68 74 -19 1 7 10 80 29 l48 13 -58 27 c-97 47 -151 127 -152
227 0 101 50 167 193 255 56 35 119 78 140 97 37 34 41 35 125 36 48 0 95 5
106 9 14 7 18 6 14 -5 -7 -22 -96 -40 -150 -30 -44 8 -49 6 -77 -23 -17 -18
-72 -56 -122 -86 -50 -30 -109 -70 -131 -89 -101 -86 -104 -234 -7 -330 35
-35 101 -70 132 -71 49 0 -6 -35 -73 -46 l-40 -7 36 -49 c19 -28 33 -52 31
-54 -10 -10 -105 19 -154 47 l-53 29 0 -33 c0 -49 -35 -178 -63 -233 l-24 -47
-5 89 c-4 61 -12 105 -28 142 -12 28 -24 52 -27 52 -16 0 -77 -59 -141 -139
-71 -86 -173 -173 -180 -152 -6 18 49 124 105 203 55 79 56 81 24 62 -38 -22
-141 -129 -167 -173 -41 -69 -43 -7 -3 76 11 24 58 84 105 135 110 121 144
190 190 389 52 227 88 295 198 374 82 58 239 136 286 142 32 5 39 10 43 33 4
15 13 35 22 44 23 23 32 20 10 -4z m1329 -263 c125 -126 186 -206 211 -278 19
-52 19 -145 0 -229 -20 -92 -19 -163 4 -208 22 -43 43 -63 129 -122 34 -24 71
-58 82 -75 20 -33 39 -125 25 -125 -4 0 -21 11 -37 25 -17 14 -49 35 -71 46
-37 20 -39 20 -32 2 20 -45 45 -128 45 -145 0 -19 -1 -19 -32 -1 -47 27 -145
120 -180 171 l-31 45 -13 -51 c-19 -74 -84 -200 -94 -181 -4 8 -10 59 -13 114
-3 55 -10 113 -16 128 -10 26 -12 27 -34 12 -44 -28 -245 -60 -235 -37 2 4 41
56 88 115 47 59 102 137 122 174 l37 67 -80 76 c-43 42 -79 81 -79 86 0 5 33
-23 74 -63 41 -40 79 -73 85 -73 18 0 12 111 -8 155 -10 23 -46 65 -83 98 -38
33 -76 78 -93 109 -46 88 -87 123 -191 163 -51 20 -98 42 -104 50 -16 20 3 20
33 1 12 -8 45 -22 72 -31 103 -34 155 -77 203 -170 11 -22 56 -76 99 -120 80
-81 103 -124 103 -192 0 -83 -56 -189 -181 -342 -38 -46 -69 -87 -69 -92 0 -5
10 -7 23 -5 12 3 45 8 72 11 28 4 70 15 94 26 24 10 47 17 51 14 13 -8 30
-100 30 -163 0 -31 4 -63 8 -70 12 -19 71 114 79 177 3 28 9 51 12 51 3 0 20
-23 36 -51 29 -50 135 -157 176 -180 20 -10 21 -9 14 23 -13 65 -49 122 -94
152 -50 33 -39 49 12 17 17 -11 52 -29 76 -41 25 -11 60 -32 78 -46 l33 -25 0
28 c0 46 -34 89 -114 142 -135 91 -158 146 -129 305 43 238 21 294 -209 531
-87 91 -168 201 -168 229 0 6 15 -15 32 -47 20 -37 76 -103 152 -180z m-1005
-178 c164 -80 406 -137 670 -158 62 -5 115 -12 118 -15 17 -17 -20 -19 -140
-8 -247 23 -481 82 -642 163 -82 41 -161 95 -169 116 -3 7 18 -5 46 -27 28
-21 81 -53 117 -71z m341 -168 c0 -6 -71 -74 -157 -151 -173 -156 -305 -302
-355 -395 -28 -52 -33 -69 -32 -130 0 -58 7 -87 41 -170 42 -103 53 -142 41
-147 -3 -2 -46 34 -95 78 l-89 81 -28 -81 c-33 -93 -84 -199 -114 -236 l-20
-25 -8 29 c-7 30 1 231 12 281 5 25 -21 1 -146 -128 -83 -86 -156 -155 -161
-151 -15 9 -10 80 8 126 9 24 29 62 45 86 15 24 28 45 28 48 0 3 -46 -37 -101
-90 -56 -52 -105 -93 -110 -90 -4 2 2 21 13 42 48 83 120 166 293 337 143 142
211 218 317 360 75 99 152 198 172 220 20 22 -39 -61 -131 -185 -142 -192
-196 -255 -368 -430 -111 -113 -216 -227 -235 -255 -40 -60 -31 -54 108 78 51
48 97 87 103 87 12 0 10 -3 -47 -85 -23 -33 -51 -79 -62 -102 -25 -49 -40
-123 -24 -123 5 0 80 73 165 162 86 90 158 160 161 157 4 -3 0 -33 -9 -65 -19
-74 -30 -222 -18 -253 9 -22 12 -18 45 45 20 38 51 112 69 164 18 52 34 97 36
99 2 3 29 -20 61 -50 31 -30 72 -68 90 -84 l32 -29 -19 54 c-11 30 -31 86 -45
123 -29 76 -33 159 -12 219 22 62 105 168 226 288 98 99 310 298 318 299 1 1
2 -3 2 -8z m1110 -240 c25 -26 81 -101 124 -167 103 -154 196 -247 301 -301
123 -64 194 -135 220 -220 5 -19 2 -23 -16 -23 -31 0 -100 37 -156 83 -52 44
-132 97 -145 97 -5 0 5 -27 22 -60 34 -68 92 -221 86 -228 -10 -9 -49 28 -110
105 -35 43 -81 94 -103 113 l-38 34 -3 -38 c-2 -21 4 -85 13 -143 9 -58 14
-107 12 -110 -13 -12 -97 84 -152 172 l-59 96 -12 -51 c-12 -52 -40 -100 -62
-108 -16 -5 -15 20 3 93 8 33 14 81 15 108 0 26 5 47 10 47 15 0 12 -51 -6
-131 -9 -38 -14 -75 -11 -82 7 -18 36 56 44 108 3 25 9 45 13 45 4 0 32 -42
63 -93 30 -51 74 -112 97 -137 41 -45 41 -45 36 -15 -13 78 -29 245 -24 251
22 22 103 -44 179 -147 28 -39 53 -68 55 -66 8 8 -58 167 -86 209 -27 40 -28
43 -10 46 30 5 99 -30 170 -88 66 -53 97 -72 137 -84 21 -7 22 -6 11 25 -17
50 -85 111 -193 175 -133 77 -189 132 -297 293 -109 160 -142 198 -225 258
-35 25 -63 47 -63 49 0 13 121 -74 160 -115z"/>
</g>
</svg>
