<?xml version="1.0" standalone="no"?>
<!DOCTYPE svg PUBLIC "-//W3C//DTD SVG 20010904//EN"
 "http://www.w3.org/TR/2001/REC-SVG-20010904/DTD/svg10.dtd">
<svg version="1.0" xmlns="http://www.w3.org/2000/svg"
 width="1200.000000pt" height="472.000000pt" viewBox="0 0 1200.000000 472.000000"
 preserveAspectRatio="xMidYMid meet">
<metadata>
Created by potrace 1.16, written by Peter Selinger 2001-2019
</metadata>
<g transform="translate(0.000000,472.000000) scale(0.100000,-0.100000)"
fill="#000000" stroke="none">
<path d="M0 2360 l0 -2360 2714 0 2714 0 20 92 c11 51 23 118 26 148 3 30 10
84 15 120 17 119 25 527 11 613 -7 42 -17 77 -21 77 -5 0 -8 -87 -8 -192 1
-196 -10 -360 -36 -545 -21 -142 -17 -136 -84 -129 -31 3 -66 6 -78 6 -27 0
-31 17 -5 23 13 4 11 5 -5 6 -13 0 -23 6 -23 12 0 6 12 9 26 7 33 -4 56 24 36
44 -10 10 -14 10 -21 -1 -7 -11 -14 -9 -34 12 -13 15 -29 27 -35 27 -5 0 -12
7 -16 15 -3 9 -18 15 -36 15 -17 0 -53 11 -81 25 -30 16 -68 26 -96 27 -25 0
-57 7 -72 14 -14 8 -42 17 -61 20 -19 4 -47 18 -62 32 l-28 26 0 213 c0 179 2
213 14 213 8 0 17 -4 20 -9 14 -22 136 -44 218 -39 100 6 154 29 221 94 63 61
93 115 120 215 21 81 22 100 22 534 0 248 -4 527 -9 620 l-8 170 188 -192
c220 -223 279 -267 364 -268 86 0 183 55 367 210 57 48 104 44 182 -16 18 -15
27 -16 38 -8 7 7 15 10 18 8 12 -13 54 -358 55 -455 0 -34 -5 -56 -15 -64 -8
-7 -15 -18 -15 -26 0 -15 -32 -86 -42 -94 -4 -3 -11 -23 -17 -45 -5 -22 -14
-53 -19 -70 -6 -16 -16 -59 -22 -95 -6 -36 -18 -75 -26 -87 -8 -12 -14 -34
-14 -48 0 -34 -60 -215 -71 -215 -5 0 -9 -9 -9 -19 0 -11 -5 -23 -10 -26 -6
-3 -10 -16 -10 -29 0 -13 -13 -42 -30 -64 -16 -23 -30 -48 -30 -56 0 -7 -18
-30 -40 -50 -29 -26 -49 -36 -74 -36 -39 0 -96 18 -96 31 0 5 -8 9 -17 9 -34
0 -90 36 -122 77 -18 25 -40 43 -51 43 -11 0 -24 9 -30 20 -6 11 -16 20 -23
20 -27 0 -137 56 -143 72 -3 10 -15 18 -26 18 -19 0 -20 -4 -15 -53 22 -196
15 -551 -13 -702 -5 -27 -17 -95 -25 -150 -9 -55 -19 -110 -22 -123 l-5 -22
885 0 886 0 -173 172 c-95 95 -180 184 -189 198 -15 24 -15 30 1 88 l17 62 75
-72 c292 -281 348 -333 436 -406 l50 -42 2237 0 2237 0 0 2360 0 2360 -6000 0
-6000 0 0 -2360z m4670 1883 c21 -111 22 -135 16 -387 -3 -148 -11 -276 -16
-285 -6 -11 -9 -12 -10 -3 0 7 -4 11 -9 8 -17 -11 -20 45 -23 344 -2 249 5
440 17 440 2 0 13 -53 25 -117z m1451 -49 c215 -36 452 -172 513 -294 15 -31
15 -35 0 -43 -14 -8 -15 -25 -8 -146 4 -75 7 -140 6 -146 -4 -73 -13 -120 -24
-126 -8 -5 -14 -36 -16 -83 -4 -67 -7 -76 -23 -76 -14 0 -19 -7 -18 -27 1 -17
3 -21 6 -10 5 19 18 22 28 7 3 -5 12 -10 18 -10 7 0 6 4 -3 11 -13 9 -13 10 0
6 8 -2 15 -8 15 -13 0 -5 4 -15 9 -23 5 -8 5 -12 0 -9 -5 3 -15 -1 -23 -9 -12
-13 -11 -14 9 -8 21 7 21 5 -8 -37 -44 -64 -102 -114 -113 -96 -7 10 -9 9 -9
-4 0 -10 -17 -26 -40 -38 -39 -20 -79 -29 -51 -11 9 6 10 10 2 16 -19 11 -70
15 -76 4 -4 -6 -13 -5 -25 1 -10 6 -29 10 -42 10 -189 2 -302 -1 -318 -10 -11
-6 -53 -12 -93 -13 -39 -1 -76 -5 -82 -9 -16 -10 -252 0 -274 11 -11 6 -24 11
-28 10 -4 -1 -10 0 -13 1 -3 1 -17 3 -32 4 -29 2 -36 -12 -16 -32 6 -6 9 -15
5 -18 -12 -12 -120 69 -207 156 -63 62 -95 103 -117 150 -56 117 -66 157 -66
270 0 89 4 115 26 173 49 128 154 253 279 334 116 75 202 103 428 137 70 10
295 5 381 -10z m-1100 -329 c-33 -52 -37 -55 -163 -108 l-88 -36 0 49 c0 33 4
50 13 50 6 0 68 22 137 49 69 26 126 47 128 46 2 -2 -10 -24 -27 -50z m-61
-143 c0 -10 -4 -22 -9 -27 -5 -6 -11 -28 -13 -50 -2 -33 -8 -42 -34 -55 -54
-26 -116 -87 -124 -122 -6 -23 -8 1 -9 78 -1 125 -11 110 99 154 30 12 59 26
65 31 15 14 25 11 25 -9z m2060 -57 c8 -7 32 -16 53 -19 21 -4 55 -16 75 -26
21 -10 63 -24 95 -31 31 -7 57 -15 57 -18 0 -10 -53 -39 -103 -56 -47 -16 -48
-16 -100 12 -106 56 -137 82 -137 113 0 17 5 30 13 30 8 0 7 4 -3 11 -11 8 -9
9 10 3 14 -3 32 -12 40 -19z m798 -24 c218 1 402 1 407 0 7 -1 8 -365 5 -1081
-3 -715 -2 -1082 5 -1085 6 -3 -1 -3 -15 0 -37 6 -588 8 -599 1 -5 -3 -12 1
-15 10 -3 9 -6 357 -6 775 l0 759 -143 0 c-161 0 -193 7 -317 73 -82 43 -119
68 -120 80 0 4 35 7 78 7 90 0 252 29 335 60 77 29 124 90 106 137 -5 15 -19
24 -46 28 -119 21 -239 47 -247 55 -6 6 2 14 20 20 79 31 119 90 90 136 -18
26 -7 39 24 29 15 -5 20 -2 20 12 1 17 1 17 11 0 10 -16 37 -17 407 -16z
m-5050 -1073 c2 -851 0 -1073 -10 -1080 -17 -11 -617 -7 -624 4 -3 5 -5 105
-4 223 l1 215 -293 0 -293 0 0 -222 0 -223 -315 0 -315 0 -3 1070 c-1 589 0
1075 2 1080 2 7 318 9 927 8 l924 -3 3 -1072z m1338 1072 c6 0 27 -48 47 -107
65 -192 94 -258 111 -255 9 2 16 -2 16 -9 0 -8 22 -10 75 -7 109 7 113 -14 6
-28 -42 -5 -53 -3 -72 15 -25 23 -35 21 -25 -4 3 -9 11 -13 17 -9 8 4 9 3 5
-4 -4 -6 -25 -16 -46 -22 -32 -9 -40 -15 -40 -34 0 -26 18 -45 86 -90 43 -29
49 -38 80 -126 19 -52 39 -104 45 -115 7 -11 15 -31 19 -45 7 -23 8 -22 20 20
8 25 17 50 20 55 7 9 17 45 26 88 9 47 16 57 40 57 14 0 26 -6 29 -12 2 -7 6
-208 8 -446 l4 -434 -59 -59 c-32 -32 -62 -59 -66 -59 -4 0 -33 53 -64 118
-76 158 -77 159 -117 142 -34 -14 -29 -5 -151 -265 -71 -152 -129 -300 -154
-394 -14 -50 -27 -95 -31 -101 -6 -11 -127 -14 -138 -4 -6 7 30 81 44 89 4 3
6 12 2 20 -3 8 -1 15 5 15 15 0 165 307 156 321 -4 8 -3 9 5 5 7 -5 20 11 36
47 13 30 28 58 34 61 5 4 12 19 16 35 8 39 -73 207 -87 176 -7 -17 -8 -16 -3
5 3 18 -20 74 -82 200 -48 96 -89 177 -92 180 -3 3 -13 19 -23 37 -16 30 -15
31 5 37 12 3 57 6 100 7 43 1 80 6 83 10 3 5 11 9 17 9 8 0 8 -3 -2 -9 -9 -6
-3 -10 20 -13 19 -3 40 -3 47 -1 9 4 12 82 12 344 l0 339 -330 0 -330 0 0
-180 0 -180 25 0 25 0 0 150 c0 108 -3 150 -12 150 -6 0 -9 3 -6 6 10 9 591 5
600 -4 5 -5 8 -22 5 -38 -4 -29 -4 -28 -6 4 0 17 -5 32 -10 32 -5 0 -8 -128
-7 -285 1 -230 -2 -286 -12 -290 -8 -3 -201 -5 -429 -5 -301 -1 -419 2 -429
11 -8 7 -13 28 -12 53 l1 41 7 -45 c4 -25 8 144 8 376 1 231 4 423 6 425 2 2
208 3 458 1 249 -1 458 -2 464 -2z m5162 -1099 l2 -1102 140 2 c98 1 140 4
141 12 0 9 2 8 5 0 4 -9 80 -12 307 -11 166 1 280 4 252 8 l-50 7 47 1 c26 1
50 -2 53 -8 9 -14 55 -12 56 3 0 9 2 9 6 0 2 -7 20 -13 39 -13 23 0 53 -12 92
-39 92 -62 145 -73 240 -49 67 16 180 97 167 119 -4 5 1 19 9 31 9 12 16 17
16 11 0 -7 -4 -15 -10 -18 -5 -3 -10 -11 -10 -16 0 -20 21 4 42 48 11 24 24
40 27 34 5 -7 99 -12 270 -13 l262 -3 0 -262 c0 -145 -1 -266 -1 -270 0 -5
-99 -7 -220 -5 l-221 3 -59 -57 -60 -57 -77 2 c-43 0 -94 -3 -113 -7 -28 -7
-39 -5 -54 9 -10 10 -16 24 -13 31 3 8 6 5 7 -7 2 -14 4 -11 9 10 8 35 2 77
-9 70 -4 -3 -7 3 -6 13 0 9 -4 16 -11 15 -7 -2 -10 4 -7 12 4 11 -7 21 -37 35
-90 40 -159 17 -203 -69 -20 -38 -20 -61 0 -111 18 -46 60 -80 97 -80 14 0 27
-5 29 -11 4 -11 76 18 114 46 20 15 26 10 147 -111 l126 -126 131 3 130 4 0
-25 c1 -14 2 -67 3 -117 2 -71 -1 -94 -12 -98 -8 -3 -119 -5 -247 -5 l-234 1
-87 90 c-49 50 -89 94 -91 98 -1 4 -401 6 -887 3 -853 -3 -885 -3 -885 15 0
10 0 494 0 1076 0 849 -2 1057 -12 1057 -9 0 -8 3 2 10 8 5 100 10 208 10
l192 0 0 325 0 325 -180 0 c-175 0 -180 -1 -180 -20 0 -20 4 -21 155 -18 147
3 154 2 159 -17 3 -11 6 -138 6 -282 l0 -263 -172 -1 c-95 -1 -230 -2 -301 -3
-102 -1 -126 2 -122 12 3 8 5 201 5 430 l0 417 438 -1 437 -1 3 -1102z m-8371
-503 c-1 -288 -2 -53 -2 522 0 575 1 810 2 523 2 -288 2 -758 0 -1045z m3655
1472 c2 -44 0 -80 -5 -80 -4 0 -45 13 -92 30 -94 32 -168 76 -173 103 -3 15
11 17 125 20 70 1 131 4 135 5 3 1 8 -34 10 -78z m2471 -10 c3 0 32 -16 64
-35 79 -47 190 -85 297 -101 95 -14 102 -17 91 -33 -20 -34 -157 -72 -250 -70
-26 0 -27 2 -10 9 18 8 17 9 -7 9 -39 1 -181 32 -192 42 -5 5 13 6 41 3 32 -4
53 -2 57 5 4 6 0 11 -9 11 -22 0 -65 30 -65 45 0 7 -9 15 -21 18 -11 3 -23 15
-26 27 -4 15 -11 20 -24 17 -12 -3 -17 -1 -12 6 4 6 6 29 4 50 l-2 39 30 -21
c16 -12 31 -21 34 -21z m-2463 -356 l0 -66 -52 7 c-85 11 -171 35 -197 54
l-24 19 60 7 c33 3 91 15 129 25 38 10 72 19 77 19 4 1 7 -29 7 -65z m601 -60
c36 -35 36 -36 32 -107 -2 -40 -9 -98 -15 -129 -9 -51 -14 -58 -34 -58 -29 0
-29 3 -5 38 31 43 33 64 9 102 -31 49 -48 99 -48 141 0 60 11 62 61 13z m1999
-57 c52 -25 125 -56 163 -69 37 -12 67 -26 67 -30 0 -29 -275 -35 -371 -7 -55
16 -56 17 -36 32 14 10 15 17 5 50 -6 20 -15 37 -20 37 -4 0 -8 10 -8 21 0 20
4 21 53 16 32 -3 89 -23 147 -50z m-2208 -24 c35 -35 49 -75 30 -87 -5 -3 -26
1 -48 9 -52 19 -105 19 -132 -1 -12 -8 -22 -12 -23 -7 -6 47 -3 95 6 103 6 5
31 10 55 13 25 2 52 4 60 5 8 1 31 -15 52 -35z m1667 -11 c9 -18 14 -71 12
-153 -1 -48 -15 -64 -46 -53 -11 5 -15 22 -15 70 0 52 -4 68 -20 81 -26 22
-25 37 3 56 30 21 54 21 66 -1z m-1311 -46 c52 -21 96 -33 327 -82 175 -37
406 -33 635 11 74 15 158 29 187 32 50 5 52 4 58 -20 9 -33 -10 -178 -31 -236
-28 -82 -123 -212 -233 -321 -142 -141 -171 -165 -214 -179 -20 -7 -37 -16
-37 -20 0 -9 -61 -31 -89 -31 -12 0 -40 9 -62 21 -54 27 -258 230 -256 254 1
10 -5 20 -13 22 -13 4 -13 3 0 -6 8 -5 12 -12 9 -15 -9 -9 -321 309 -348 354
-23 40 -24 46 -13 99 7 32 12 76 12 99 0 23 2 42 5 42 3 0 31 -11 63 -24z
m-383 -218 c17 0 49 3 73 7 37 7 42 5 42 -11 0 -11 -9 -34 -20 -52 -13 -21
-18 -43 -15 -60 4 -21 4 -23 -3 -7 -8 17 -14 10 -42 -50 -18 -38 -32 -71 -32
-72 1 -2 -16 -32 -36 -69 -25 -43 -55 -79 -85 -101 l-47 -35 0 232 0 232 68
-6 c37 -4 81 -7 97 -8z m242 -226 c-10 -10 -17 -25 -17 -33 0 -8 -12 -36 -26
-63 -22 -40 -24 -53 -15 -68 14 -23 -5 -41 -168 -152 -64 -43 -127 -89 -142
-102 -14 -13 -28 -24 -32 -24 -4 0 -7 33 -7 73 l0 73 88 66 c48 36 139 107
202 157 109 86 154 114 117 73z m-793 -480 c32 -73 35 -89 30 -140 -5 -48 -2
-68 22 -127 36 -90 60 -128 112 -182 l42 -44 0 -124 c0 -69 -4 -125 -8 -125
-9 0 -88 162 -135 275 -69 166 -106 315 -114 460 -6 127 -2 128 51 7z m-101
-44 c7 -129 36 -253 95 -414 41 -114 128 -296 188 -395 l34 -57 0 -288 c0
-159 -4 -295 -9 -302 -7 -11 -13 -9 -31 10 -60 62 -152 226 -205 363 -14 39
-33 86 -40 105 -8 19 -23 67 -34 105 -84 296 -109 548 -77 760 16 102 54 237
65 230 5 -2 11 -55 14 -117z m297 23 c0 -21 -6 -32 -20 -36 -32 -10 -23 -33
18 -50 20 -9 70 -36 110 -61 71 -45 92 -74 51 -74 -11 0 -29 -5 -40 -11 -17
-9 -19 -17 -14 -50 l7 -39 -45 0 c-42 0 -46 -2 -49 -27 -2 -19 -9 -29 -24 -31
-17 -2 -26 10 -52 65 -17 37 -36 96 -42 129 -11 55 -10 66 7 105 16 36 77 109
90 109 2 0 3 -13 3 -29z m305 -158 c94 -192 84 -172 130 -262 26 -50 35 -76
27 -79 -7 -2 -10 -8 -6 -13 3 -5 0 -9 -5 -9 -6 0 -11 4 -11 8 0 5 -55 8 -122
8 l-123 -1 -5 100 c-7 134 -4 152 27 160 22 5 25 10 19 37 -3 18 -15 40 -26
50 -30 28 -32 124 -3 146 9 6 18 12 19 12 1 0 36 -71 79 -157z m4808 108 l92
2 3 -27 c2 -17 -2 -28 -12 -32 -21 -8 -22 -70 -1 -78 8 -3 15 -12 15 -21 0 -8
5 -15 11 -15 6 0 9 6 6 14 -3 8 1 17 9 20 18 7 18 56 -1 92 -8 16 -11 32 -6
37 9 9 211 16 211 7 0 -9 195 2 207 12 17 14 29 -39 14 -63 -14 -23 -15 -76
-1 -84 6 -3 10 -15 10 -26 0 -10 -4 -19 -10 -19 -5 0 -10 -20 -10 -45 0 -25 5
-45 10 -45 15 0 12 -60 -3 -66 -15 -5 -11 -74 4 -74 5 0 9 -16 9 -35 l0 -35
-104 0 -104 0 -4 30 c-3 21 0 31 12 35 12 4 15 14 12 40 -2 19 -8 38 -13 41
-12 7 -11 64 1 64 14 0 12 66 -2 90 -10 16 -10 24 0 40 15 25 15 59 0 93 -13
28 -32 38 -22 12 4 -8 -1 -17 -10 -21 -20 -8 -21 -52 -1 -90 13 -25 13 -29 0
-37 -17 -9 -21 -87 -5 -87 6 0 10 -13 10 -29 0 -17 -4 -33 -10 -36 -5 -3 -10
-22 -10 -41 0 -19 4 -33 9 -30 9 6 21 -61 12 -69 -2 -3 -51 -5 -108 -5 l-103
0 0 34 c0 19 -6 37 -12 40 -7 3 -3 3 10 0 20 -5 22 -2 22 30 0 19 -4 37 -9 40
-16 10 -19 57 -5 63 17 6 19 79 3 88 -5 4 -21 4 -35 1 -20 -5 -24 -12 -24 -46
0 -29 4 -40 15 -40 10 0 15 -10 15 -30 0 -18 -6 -33 -15 -36 -9 -4 -15 -19
-15 -39 0 -20 6 -35 15 -39 9 -3 15 -18 15 -36 l0 -30 -95 0 c-68 0 -95 -3
-95 -12 0 -7 -6 -4 -14 7 -18 28 -14 69 9 74 14 2 15 5 4 12 -10 6 -11 11 -3
17 17 11 13 41 -8 48 -22 7 -25 52 -3 60 10 4 15 20 15 45 0 26 -5 42 -15 45
-22 9 -19 45 4 51 16 4 18 9 11 28 -5 14 -5 26 3 34 8 8 7 11 -6 11 -25 0 -31
24 -15 60 9 21 14 26 16 15 3 -14 18 -16 95 -14z m-5548 -53 c-14 -42 -18
-349 -5 -433 19 -127 38 -218 71 -333 16 -59 36 -132 43 -162 18 -73 54 -164
66 -168 6 -2 10 -10 10 -18 0 -20 60 -144 70 -144 4 0 11 -12 14 -26 8 -30 98
-154 145 -198 30 -29 31 -33 31 -113 0 -46 -3 -83 -7 -83 -7 0 -73 30 -129 58
-76 37 -256 218 -297 297 -8 17 -24 39 -34 50 -26 28 -95 184 -87 196 3 6 -3
23 -14 38 -29 39 -54 160 -59 291 -6 122 10 293 27 298 5 2 10 25 10 52 0 26
9 79 21 116 30 101 113 304 123 304 4 0 5 -10 1 -22z m6490 -47 c44 -19 100
-78 117 -120 17 -44 13 -156 -7 -188 -54 -85 -126 -126 -215 -121 -30 1 -59 6
-65 11 -5 4 -24 17 -41 27 -18 10 -45 35 -60 56 -27 35 -29 44 -29 128 0 82 3
95 27 129 27 40 79 81 113 90 45 11 122 6 160 -12z m-3729 -264 c34 -70 101
-180 124 -204 32 -34 3 -28 -32 7 -38 38 -52 30 -45 -27 4 -37 2 -44 -12 -41
-11 2 -17 16 -19 41 -2 20 -9 37 -15 37 -27 0 -40 -21 -45 -69 -8 -83 -28 -78
-60 14 -19 57 -52 209 -52 243 0 10 10 4 30 -18 27 -30 32 -32 52 -21 52 28
60 38 48 60 -6 12 -7 21 -3 21 4 0 17 -20 29 -43z m-2982 -182 c-1 -27 -4
-108 -9 -180 -6 -104 -4 -149 10 -225 9 -52 17 -104 18 -115 2 -19 -5 -20
-188 -23 -174 -3 -325 6 -282 15 15 4 17 20 17 154 l0 149 -25 0 -25 0 2 -177
3 -178 256 -3 c189 -2 259 -6 267 -15 5 -6 17 -33 26 -58 10 -26 30 -73 46
-105 16 -33 25 -63 21 -67 -9 -9 -848 -10 -862 -1 -5 3 -9 203 -9 445 l0 439
368 -2 367 -3 -1 -50z m1397 39 c8 -5 10 -37 7 -107 -5 -94 -7 -102 -32 -123
-42 -37 -118 -55 -176 -43 -59 13 -150 66 -208 122 -71 68 -123 134 -117 148
4 11 54 14 260 12 140 -1 259 -5 266 -9z m2644 -6 l270 -3 0 -430 0 -430 -609
-3 -608 -2 -35 36 c-45 48 -124 156 -212 288 -76 115 -76 115 -64 239 l6 67
37 0 c20 0 45 -7 56 -15 25 -19 42 -19 60 0 13 12 52 15 225 15 l209 0 0 -184
c0 -101 3 -191 6 -200 3 -9 17 -16 31 -16 22 0 24 2 13 15 -7 9 -10 18 -7 21
3 3 10 -4 17 -15 10 -21 17 -21 305 -21 l295 0 0 180 0 180 -25 0 c-31 0 -32
-8 -2 -20 l22 -9 -22 0 c-23 -1 -23 -3 -23 -125 0 -82 4 -127 11 -132 8 -5 6
-10 -5 -16 -9 -5 -16 -16 -16 -25 0 -15 -1 -15 -13 0 -11 16 -35 17 -269 15
l-258 -3 -5 40 c-3 22 -4 155 -2 295 l4 255 159 3 c96 3 160 8 163 14 2 7 6 6
10 -1 5 -7 95 -12 276 -13z m-6467 -295 l2 -293 -285 0 -285 0 0 155 c0 148
-1 155 -20 155 -19 0 -20 -7 -20 -180 l0 -180 333 -2 332 -3 0 -110 0 -110
-465 -5 -465 -5 3 425 c1 234 4 431 7 438 3 10 95 12 432 10 l428 -3 3 -292z
m1592 -133 c3 -278 2 -428 -5 -432 -5 -4 -220 -8 -477 -8 l-468 0 0 115 0 115
335 0 335 0 0 186 c0 166 -2 185 -16 180 -9 -3 -20 -6 -25 -6 -7 0 -9 -58 -8
-152 l2 -153 -277 -5 c-153 -3 -280 -2 -282 2 -3 5 -7 479 -4 576 0 10 92 12
443 10 l442 -3 5 -425z m1775 243 c95 -91 109 -101 174 -131 58 -27 146 -35
204 -19 35 10 34 -2 -6 -55 -21 -28 -53 -53 -92 -73 -53 -27 -70 -30 -150 -30
-74 0 -98 4 -138 24 -79 38 -77 34 -77 202 0 82 3 149 7 149 3 0 39 -30 78
-67z m5640 -296 l0 -69 -65 -1 -65 -1 -3 72 -3 73 68 -3 68 -3 0 -68z m-3924
-94 c-28 -109 -37 -128 -104 -210 -50 -61 -91 -92 -105 -78 -6 6 22 65 30 65
5 0 8 4 8 10 0 15 59 104 75 113 8 4 15 15 15 22 0 8 4 15 9 15 5 0 11 10 15
23 3 12 14 32 26 44 11 12 20 24 20 27 0 3 5 17 10 32 20 53 21 15 1 -63z m59
-142 c0 -5 18 -36 41 -70 26 -38 37 -65 32 -73 -6 -9 -37 -13 -104 -13 -111 0
-109 -6 -39 98 40 59 70 84 70 58z m3150 -197 c0 -14 -7 -27 -15 -30 -9 -4
-15 -19 -15 -39 0 -20 6 -35 15 -39 8 -3 15 -14 15 -25 0 -11 -7 -26 -15 -35
-8 -8 -15 -26 -15 -39 0 -14 7 -30 15 -37 8 -7 15 -23 15 -37 0 -13 -7 -26
-15 -29 -21 -8 -20 -70 1 -78 10 -4 14 -16 12 -36 l-3 -31 -105 -2 -105 -1 -3
32 c-3 26 1 34 20 41 13 6 17 10 11 10 -9 1 -10 8 -3 27 13 33 13 31 -10 37
-13 3 -20 14 -20 30 0 25 22 52 33 40 4 -3 7 -1 7 5 0 7 -5 12 -11 12 -5 0 -7
4 -4 10 3 5 -1 26 -11 45 -18 39 -13 65 12 65 13 0 14 3 5 14 -13 16 -11 37 4
48 6 5 3 8 -7 8 -9 0 -20 9 -23 20 -12 38 7 45 114 42 100 -3 101 -4 101 -28z
m230 -1 c0 -18 -4 -33 -10 -33 -5 0 -10 -16 -10 -37 0 -20 3 -33 7 -29 4 3 12
-6 19 -21 11 -25 12 -26 13 -6 1 12 6 25 11 28 6 3 10 19 10 35 0 16 -4 32
-10 35 -5 3 -10 18 -10 33 l0 27 105 -3 105 -3 0 -30 c0 -16 -4 -29 -10 -29
-5 0 -10 -16 -10 -35 0 -19 5 -35 10 -35 6 0 10 -13 10 -30 0 -16 -4 -30 -10
-30 -5 0 -10 -18 -10 -40 0 -22 5 -40 10 -40 6 0 10 -13 10 -29 0 -17 -4 -33
-10 -36 -5 -3 -10 -21 -10 -40 0 -19 5 -37 10 -40 6 -3 10 -19 10 -36 l0 -29
-225 0 -224 0 4 32 c2 18 9 34 15 36 5 2 10 10 10 18 0 9 -4 12 -10 9 -14 -9
-13 8 2 23 9 9 8 16 -5 30 -22 24 -22 48 1 62 13 9 14 12 3 17 -11 5 -11 7 0
14 12 7 11 9 -1 9 -13 0 -13 2 0 10 12 8 12 11 -2 27 -18 20 -18 55 0 61 15 5
16 68 2 77 -10 6 -14 48 -6 56 2 2 50 4 105 4 l101 0 0 -32z m-3882 -12 c25
-1 32 -5 32 -21 0 -17 4 -19 28 -14 24 7 26 6 13 -9 -21 -26 -5 -20 24 8 14
14 25 21 25 15 0 -5 5 -10 10 -10 6 0 10 7 10 15 0 8 2 15 4 15 2 0 13 3 23 6
26 9 -62 -73 -100 -92 -18 -9 -34 -20 -37 -24 -7 -11 -193 -103 -268 -134 -52
-21 -184 -49 -144 -30 6 3 12 23 12 45 0 26 5 42 15 45 8 4 12 10 9 15 -3 5
-1 9 5 9 6 0 13 11 17 25 3 14 12 25 20 25 8 0 14 9 14 20 0 11 4 19 9 18 5
-2 25 12 45 30 55 50 61 51 234 43z"/>
<path d="M5374 3845 c-100 -45 -100 -170 -1 -189 59 -11 128 18 157 67 27 43
25 61 -8 98 -33 37 -97 47 -148 24z"/>
<path d="M6360 3760 c-96 -23 -93 -140 5 -189 61 -31 110 -28 146 8 18 19 29
40 29 58 0 77 -95 142 -180 123z"/>
<path d="M5555 3455 c-57 -14 -132 -25 -175 -25 -51 -1 -69 -4 -55 -10 35 -15
110 -11 260 15 133 24 154 25 245 15 103 -11 211 -40 315 -84 80 -34 191 -58
246 -54 50 4 42 9 -51 31 -36 8 -105 31 -155 50 -160 63 -236 79 -390 83 -123
3 -152 1 -240 -21z"/>
<path d="M1549 2986 c-2 -2 -3 -99 -1 -215 l3 -211 289 0 290 0 0 215 0 215
-288 0 c-159 0 -291 -2 -293 -4z"/>
<path d="M1430 2265 l0 -275 45 0 45 0 0 275 0 275 -45 0 -45 0 0 -275z"/>
</g>
</svg>
